<?xml version="1.0" encoding="UTF-8" standalone="no"?><!DOCTYPE svg PUBLIC "-//W3C//DTD SVG 1.1//EN" "http://www.w3.org/Graphics/SVG/1.1/DTD/svg11.dtd"><svg width="100%" height="100%" viewBox="0 0 2250 2250" version="1.1" xmlns="http://www.w3.org/2000/svg" xmlns:xlink="http://www.w3.org/1999/xlink" xml:space="preserve" xmlns:serif="http://www.serif.com/" style="fill-rule:evenodd;clip-rule:evenodd;stroke-linejoin:round;stroke-miterlimit:2;"><path d="M1441.13,1416.36C1441.81,1417.29 1442.48,1418.22 1443.15,1419.15C1363.96,1504.75 1250.69,1558.38 1125,1558.38C1058.8,1558.38 996.046,1543.51 939.902,1516.92C905.59,1500.67 873.747,1480.04 845.094,1455.77C829.21,1442.31 814.307,1427.73 800.507,1412.15C732.766,1335.67 691.62,1235.1 691.62,1125C691.62,1071.18 701.45,1019.65 719.411,972.085C738.197,922.342 765.877,876.949 800.507,837.851C804.645,833.179 808.883,828.597 813.216,824.108C892.052,742.441 1002.64,691.62 1125,691.62C1177.94,691.62 1228.67,701.132 1275.58,718.538C1318.34,734.401 1357.91,756.822 1393.09,784.574C1410.18,798.056 1426.24,812.796 1441.11,828.655C1513.83,906.181 1558.38,1010.43 1558.38,1125C1558.38,1175.67 1549.66,1224.32 1533.65,1269.54C1514.23,1324.38 1484.07,1374.17 1445.71,1416.36L1441.13,1416.36L1441.11,1416.33L1441.11,1416.36L1441.13,1416.36Z" style="fill:url(#_Radial1);"/><g id="N"><path d="M800.507,821.418C804.751,822.294 808.987,823.19 813.216,824.108C929.876,849.425 1040.6,890.745 1142.96,945.651L1060.79,1086.38C979.472,1043.34 892.186,1010.1 800.507,988.24L800.507,1414.81L641.24,1414.81L641.24,821.418L800.507,821.418Z" style="fill:white;"/><path d="M1441.11,828.655L1441.11,822.892L1600.35,822.892L1600.35,1416.36L1441.13,1416.36L1441.11,1416.33C1365.7,1312.68 1272.81,1222.55 1166.78,1150.29L1252.53,1011.71C1320.3,1057.36 1383.44,1109.34 1441.11,1166.8C1473.76,1199.34 1504.66,1233.64 1533.65,1269.54C1549.66,1224.32 1558.38,1175.67 1558.38,1125C1558.38,1010.43 1513.83,906.181 1441.11,828.655Z" style="fill:white;"/></g><path d="M1427.42,637.861C1430.04,637.943 1432.37,638.601 1434.37,639.873C1452.82,651.648 1435.63,711.643 1396,773.767C1394.13,776.699 1392.24,779.585 1390.34,782.419C1382.79,776.56 1375.04,770.945 1367.1,765.586C1368.68,763.235 1370.26,760.82 1371.83,758.35C1391.31,727.826 1402.96,700.394 1397.84,697.128C1396.23,696.099 1393.14,697.592 1389.06,701.074L905.136,1498.47L904.699,1498.21C870.348,1555.16 830.403,1592.43 812.252,1583.48C812.058,1583.39 811.867,1583.29 811.678,1583.18C798.92,1576.01 800.868,1546.43 814.349,1508.42C820.594,1490.81 829.313,1471.39 840.193,1451.55C841.816,1452.97 843.45,1454.37 845.094,1455.77C850.873,1460.66 856.782,1465.41 862.815,1470.01C848.04,1497.91 840.149,1521.28 844.955,1523.98C845.861,1524.49 847.16,1524.23 848.779,1523.3L1334.99,722.123C1368.95,671.577 1406.99,637.22 1427.42,637.861Z" style="fill:white;"/><defs><radialGradient id="_Radial1" cx="0" cy="0" r="1" gradientUnits="userSpaceOnUse" gradientTransform="matrix(668.664,767.937,-767.937,668.664,1000.7,883.726)"><stop offset="0" style="stop-color:rgb(255,0,229);stop-opacity:1"/><stop offset="1" style="stop-color:rgb(94,0,154);stop-opacity:1"/></radialGradient></defs></svg>